<svg width="822" height="789" viewBox="0 0 822 789" fill="none" xmlns="http://www.w3.org/2000/svg">
<g filter="url(#filter0_d_2320_17)">
<path d="M408.399 405.5C408.399 352.249 408.399 405.5 33.7655 250.322C408.399 405.5 84.0127 156.422 121.667 118.768C159.321 81.114 204.023 51.2451 253.221 30.8668C408.399 250.322 355.148 -6.98303e-06 408.399 0C408.399 250.322 514.379 10.4886 563.577 30.8669C612.774 51.2452 657.476 81.1141 695.13 118.768C732.785 156.422 762.654 201.124 783.032 250.322C803.41 299.519 818 352.249 818 405.5H612L408.399 405.5Z" fill="#0B71BB"/>
<path d="M818 405.5C818 458.751 804.511 511.481 784.133 560.678C763.755 609.876 733.886 654.578 696.232 692.232C658.578 729.886 613.876 759.755 564.678 780.133C564.678 692.232 462.751 648 409.5 648C356.249 648 297.198 712.61 248 692.232C248 560.678 160.422 729.886 122.768 692.232C85.114 654.578 55.2451 609.876 34.8668 560.678C14.4886 511.481 4 458.751 4 405.5L408.399 405.5L612 405.5H818Z" fill="#0B71BB"/>
</g>
<defs>
<filter id="filter0_d_2320_17" x="0" y="0" width="822" height="788.134" filterUnits="userSpaceOnUse" color-interpolation-filters="sRGB">
<feFlood flood-opacity="0" result="BackgroundImageFix"/>
<feColorMatrix in="SourceAlpha" type="matrix" values="0 0 0 0 0 0 0 0 0 0 0 0 0 0 0 0 0 0 127 0" result="hardAlpha"/>
<feOffset dy="4"/>
<feGaussianBlur stdDeviation="2"/>
<feComposite in2="hardAlpha" operator="out"/>
<feColorMatrix type="matrix" values="0 0 0 0 0 0 0 0 0 0 0 0 0 0 0 0 0 0 0.25 0"/>
<feBlend mode="normal" in2="BackgroundImageFix" result="effect1_dropShadow_2320_17"/>
<feBlend mode="normal" in="SourceGraphic" in2="effect1_dropShadow_2320_17" result="shape"/>
</filter>
</defs>
</svg>
